<?xml version="1.0" encoding="UTF-8"?><svg id="Layer_2" xmlns="http://www.w3.org/2000/svg" viewBox="0 0 1418.89 321"><defs><style>.cls-1{fill:#abefed;}.cls-1,.cls-2{stroke-width:0px;}.cls-2{fill:#000;}</style></defs><g id="Text"><path class="cls-2" d="M487.5,169.4c13.2,0,22.4,5,29.6,10.2v-8c0-17-10-25.2-26.2-25.2-14.4,0-25.8,4.6-34,7.4l2.6-18c11.8-3.4,22.4-5,34.8-5,27.4,0,43,13.8,43,40.8v60.2h-19.6v-11.2c-5.2,8-16.6,14.2-31.4,14.2-22,0-35.8-14.2-35.8-33.2s14.6-32.2,37-32.2ZM491.9,220c13.8,0,25.4-10,25.4-25.2v-1.2c-8.2-6.4-16.6-9.2-25.6-9.2-13,0-21,6.8-21,17.2s8,18.4,21.2,18.4Z"/><path class="cls-2" d="M655.7,132.2v99.6h-19v-15c-6.6,10-18.2,18-35.4,18-21.8,0-35.2-14.6-35.2-36v-64l20-2.6v62.4c0,15,8,24,22.8,24s26.8-14.4,26.8-31.4v-52.4l20-2.6Z"/><path class="cls-2" d="M758.3,231.8v-15.4c-7,10.6-17.8,18.4-35.8,18.4-20.8,0-40.4-17.2-40.4-51.8s21.8-52,44.8-52c15.8,0,25,7,30.6,11.6v-47l20.2-3.2v139.4h-19.4ZM730.7,147.2c-14.4,0-27.8,12.6-27.8,35.2s10.6,36.2,27,36.2,27.6-13.6,27.6-30.6v-28.8c-6-5.2-14.4-12-26.8-12Z"/><path class="cls-2" d="M819.5,86l15.6,15-15.6,14.6-15.8-14.6,15.8-15ZM809.5,134.8l20-2.6v99.6h-20v-97Z"/><path class="cls-2" d="M855.9,182.8c0-31.8,22.4-52,51.6-52s51.4,20.2,51.4,52-22.2,52.2-51.4,52.2-51.6-20.4-51.6-52.2ZM937.9,182.8c0-23-12.6-36.2-30.4-36.2s-30.6,13.2-30.6,36.2,12.6,36.2,30.4,36.2,30.6-13.4,30.6-36.2Z"/><path class="cls-2" d="M1066.5,209.2l-2.8,16.8c-9,5.2-20,9-33.8,9-31.2,0-50.2-20.4-50.2-52.2s21-52,51.4-52c12,0,22.8,3.4,31,7.4l3.2,19.2c-11.8-6.4-21.8-10.8-32.6-10.8-18.4,0-32.4,13.8-32.2,36.2.2,24,12.6,36.4,32.2,36.4,11.8,0,22.8-3.6,33.8-10Z"/><path class="cls-2" d="M1178.5,188.4h-76.8c2,20,14.8,30.8,36.8,30.8,14.8,0,23.2-3.2,36.2-9.2l-2.8,16.8c-7.2,3.2-17.8,8.2-37,8.2-30.4,0-53.8-19-53.8-52s22.4-52.2,50.2-52.2,47.8,19,47.8,47.8c0,3.4-.2,6.8-.6,9.8ZM1102.1,174.6h57.6c-1.4-18.6-12.4-28.4-28.4-28.4s-26.6,9.6-29.2,28.4Z"/><path class="cls-2" d="M1296.7,167.6v64.2h-20.2v-61c0-14.8-8.4-23.6-23.8-23.6s-27.2,13.4-27.2,30.4v54.2h-20v-97l19.2-2.6v17c6.6-10.2,18-18.2,35.8-18.2,22.6,0,36.2,14.4,36.2,36.6Z"/><path class="cls-2" d="M1418.29,188.4h-76.8c2,20,14.8,30.8,36.8,30.8,14.8,0,23.2-3.2,36.2-9.2l-2.8,16.8c-7.2,3.2-17.8,8.2-37,8.2-30.4,0-53.8-19-53.8-52s22.4-52.2,50.2-52.2,47.8,19,47.8,47.8c0,3.4-.2,6.8-.6,9.8ZM1341.9,174.6h57.6c-1.4-18.6-12.4-28.4-28.4-28.4s-26.6,9.6-29.2,28.4Z"/><circle class="cls-1" cx="160.5" cy="160.5" r="160.5"/><path class="cls-2" d="M303.04,160.92c0,73.29-55.32,133.67-126.48,141.64-4.08.46-7.63-2.77-7.56-6.88l.45-28.44c.29-6.31,1.75-9.41,2.41-10.92,2.87-5.13,5.55-7.06,8.34-9.49.6-.53,1.23-1.08,1.87-1.66l.2-.18c5.05-4.6,10.26-9.36,10.26-19.54,0-8.68-6.63-18.43-15.42-22.68-4.67-2.26-9.82-3.52-14.48-3.55h-.23c-5.31,0-10.44,1.28-15.23,3.81-5.14,2.72-9.78,6.83-13.8,12.23-4.99,2.21-7.39,2.4-11.54.17-7.81-4.21-6.95-12.87-2.78-20.02l.37-.49c9.98-13.39,24.86-21.06,40.86-21.06h.18c15.86.06,30.55,7.72,40.32,21.02l1.37,1.86.44.12c3.74,3.85,8.17,6.18,12.91,6.79,4.86.62,9.91-.64,14.23-3.55,4.66-3.14,8.15-7.86,9.83-13.31,1.85-6,1.26-12.33-1.66-17.8-3.05-5.72-4.77-8.03-7.62-11.87-.03-.04-.06-.09-.09-.13l-.03-.12-.7-.95c-17.08-23.22-42.87-36.59-70.76-36.68-13.46-.03-26.99,3.12-39.11,9.15-12.8,6.37-23.78,15.62-32.64,27.5l-.23.31c-2.54,2.7-5.36,4.33-8.19,4.74-2.44.35-4.81-.24-6.69-1.68-4.4-3.36-5.94-11.09.49-20.82,5.64-7.54,12.09-14.36,19.18-20.25,6.92-5.75,14.47-10.66,22.46-14.59,15.63-7.69,32.98-11.59,50.17-11.29,8.35.15,16.66,1.28,24.72,3.35,8.22,2.12,16.21,5.24,23.74,9.28,16.02,8.58,29.77,21.07,40.86,37.1,2.12,3.06,6.31,3.82,9.37,1.71,3.06-2.12,3.82-6.31,1.71-9.37-12.32-17.81-27.65-31.7-45.57-41.31-8.48-4.54-17.47-8.06-26.74-10.45-9.08-2.34-18.45-3.61-27.85-3.78-19.32-.34-38.8,4.04-56.34,12.67-8.94,4.4-17.39,9.89-25.13,16.32-7.95,6.61-15.17,14.25-21.47,22.7l-.2.29c-4.92,7.38-7.19,15.09-6.56,22.29.61,6.89,3.8,12.87,9.01,16.84,4.78,3.65,10.74,5.18,16.79,4.3,6.3-.91,12.19-4.33,17.03-9.9l5.06-6.3c14.63-16.27,34.7-25.44,56.1-25.36,23.21.08,44.75,11.09,59.27,30.27l.03.11.7.95c.28.38.55.75.81,1.09,2.64,3.57,3.97,5.36,6.55,10.19,2.71,5.08.19,10.91-3.81,13.61-4.66,3.14-8.43.47-10.76-2.33l-.44-.53c-12.32-16.26-30.67-25.6-50.5-25.67h-.22c-9.67,0-19.38,2.29-28.08,6.61-8.58,4.26-16.02,10.32-22.16,18.01l-.3.08-1.38,2.03c-4.88,7.2-6.99,15.1-6.11,22.86.82,7.15,4.26,13.67,9.46,17.87,4.45,3.6,9.93,5.31,15.43,4.82,5.83-.52,11.46-3.44,16.27-8.46l.65-.68.24-.45c5.24-6.97,11.37-10.48,18.21-10.43,2.63.02,5.89.84,8.72,2.21,4.4,2.13,7.81,7.42,7.81,10.55,0,4.05-1.31,5.43-5.87,9.59l-.2.18c-.54.49-1.08.97-1.66,1.47-3.29,2.87-7.01,6.12-11.05,13.38-1.64,2.96-4.21,8.18-4.27,16.03l-.03.3s-.28,15.34-.45,26.26c-.09,5.96-5.3,10.55-11.23,9.88-71.26-8.06-126.59-68.65-126.34-142.12.27-78.77,64.76-142.58,143.53-142.04,78.26.53,141.55,64.14,141.55,142.54Z"/></g></svg>