<svg width="853" height="210" viewBox="0 0 853 210" fill="none" xmlns="http://www.w3.org/2000/svg">
<g clip-path="url(#clip0_159_19)">
<path d="M848.483 197.077H152.533C185.731 179.799 208.411 145.055 208.411 105C208.411 47.7249 162.044 1.2923 104.851 1.2923C47.657 1.2923 1.29047 47.7249 1.29047 105C1.29047 162.275 47.1344 208.171 103.883 208.695V208.708H848.483C850.264 208.708 851.71 207.26 851.71 205.477V200.308C851.71 198.524 850.264 197.077 848.483 197.077Z" fill="#006484" stroke="#062026" stroke-width="4" stroke-linejoin="round"/>
<path d="M196.822 105.271C196.822 152.628 161.128 191.643 115.213 196.793C112.581 197.09 110.29 195.003 110.335 192.347L110.625 173.97C110.813 169.893 111.755 167.89 112.18 166.914C114.032 163.6 115.762 162.353 117.562 160.782C117.949 160.44 118.355 160.085 118.768 159.71L118.897 159.594C122.156 156.621 125.517 153.546 125.517 146.968C125.517 141.359 121.24 135.059 115.568 132.313C112.555 130.853 109.232 130.038 106.225 130.019H106.077C102.65 130.019 99.3403 130.846 96.2496 132.481C92.9331 134.238 89.9393 136.894 87.3454 140.383C84.1257 141.811 82.5771 141.934 79.8994 140.493C74.8601 137.773 75.415 132.177 78.1057 127.557L78.3444 127.241C84.7838 118.589 94.3849 113.633 104.709 113.633H104.825C115.058 113.671 124.537 118.621 130.841 127.215L131.725 128.417L132.009 128.494C134.422 130.982 137.28 132.487 140.339 132.882C143.474 133.282 146.733 132.468 149.52 130.588C152.527 128.559 154.779 125.509 155.863 121.987C157.057 118.11 156.676 114.02 154.792 110.486C152.824 106.79 151.714 105.297 149.875 102.816C149.856 102.79 149.836 102.758 149.817 102.732L149.798 102.654L149.346 102.041C138.325 87.0369 121.685 78.3978 103.689 78.3397C95.0043 78.3203 86.2743 80.3557 78.4541 84.252C70.1951 88.368 63.1104 94.3449 57.3936 102.021L57.2452 102.222C55.6063 103.966 53.7868 105.019 51.9608 105.284C50.3864 105.51 48.8572 105.129 47.6441 104.199C44.8051 102.028 43.8114 97.0329 47.9603 90.7458C51.5994 85.8738 55.7612 81.4671 60.3359 77.6612C64.8009 73.9458 69.6724 70.7732 74.8279 68.2338C84.9129 63.2649 96.1077 60.7449 107.199 60.9387C112.587 61.0357 117.949 61.7658 123.149 63.1034C128.453 64.4732 133.609 66.4892 138.467 69.0997C148.804 74.6437 157.676 82.7141 164.832 93.072C166.2 95.0492 168.903 95.5403 170.877 94.1769C172.852 92.8071 173.342 90.0997 171.981 88.1224C164.032 76.6144 154.14 67.6394 142.577 61.4298C137.106 58.4963 131.305 56.2218 125.324 54.6775C119.465 53.1655 113.419 52.3449 107.354 52.2351C94.8882 52.0154 82.319 54.8455 71.0016 60.4218C65.2332 63.2649 59.781 66.8123 54.7869 70.9671C49.6573 75.2381 44.9987 80.1747 40.9337 85.6347L40.8047 85.8221C37.6301 90.5908 36.1654 95.5726 36.5719 100.225C36.9655 104.677 39.0238 108.541 42.3855 111.106C45.4697 113.465 49.3153 114.453 53.219 113.885C57.2839 113.297 61.0844 111.087 64.2073 107.488L67.4722 103.417C76.912 92.904 89.8618 86.9788 103.67 87.0304C118.646 87.0821 132.544 94.1963 141.913 106.59L141.932 106.661L142.384 107.274C142.565 107.52 142.739 107.759 142.907 107.979C144.61 110.286 145.468 111.442 147.133 114.563C148.881 117.846 147.255 121.613 144.674 123.357C141.668 125.386 139.235 123.661 137.732 121.852L137.448 121.509C129.499 111.003 117.659 104.968 104.864 104.922H104.722C98.4822 104.922 92.2169 106.402 86.6034 109.194C81.0673 111.946 76.2667 115.862 72.305 120.831L72.1114 120.882L71.221 122.194C68.0723 126.846 66.7108 131.951 67.2786 136.965C67.8077 141.585 70.0273 145.798 73.3825 148.512C76.2538 150.838 79.7897 151.943 83.3385 151.626C87.1002 151.29 90.7329 149.404 93.8365 146.16L94.2559 145.721L94.4107 145.43C97.7918 140.926 101.747 138.658 106.16 138.69C107.857 138.703 109.961 139.233 111.787 140.118C114.626 141.495 116.826 144.913 116.826 146.935C116.826 149.552 115.981 150.444 113.039 153.132L112.91 153.248C112.561 153.565 112.213 153.875 111.839 154.198C109.716 156.053 107.315 158.153 104.709 162.844C103.65 164.756 101.992 168.129 101.954 173.202L101.934 173.395C101.934 173.395 101.753 183.307 101.644 190.363C101.586 194.214 98.2241 197.18 94.3978 196.747C48.4184 191.539 12.7176 152.389 12.8789 104.916C13.0531 54.0184 54.6643 12.7874 105.489 13.1363C155.985 13.4788 196.822 54.5806 196.822 105.239V105.271Z" fill="#062026"/>
<path d="M95.1398 193.601C95.0172 193.601 94.8882 193.594 94.7591 193.581C49.7605 188.483 15.9502 150.392 16.105 104.968C16.2728 56.1378 56.0837 16.4058 104.851 16.4058H105.464C129.04 16.5674 151.178 25.8849 167.8 42.6397C184.434 59.4009 193.59 81.648 193.59 105.278C193.59 150.586 159.734 188.554 114.845 193.588C114.8 193.588 114.755 193.594 114.71 193.594C114.29 193.594 114.013 193.374 113.884 193.245C113.729 193.084 113.542 192.812 113.548 192.405L113.839 174.08C113.994 170.83 114.684 169.234 115.058 168.362C116.374 166.049 117.536 165.054 118.994 163.8C119.22 163.606 119.446 163.412 119.672 163.218L119.807 163.102C120.175 162.779 120.549 162.45 120.936 162.101L121.046 162.004C124.485 158.863 128.737 154.98 128.737 146.974C128.737 140.099 123.788 132.714 116.962 129.412C113.523 127.751 109.716 126.821 106.238 126.795H106.07C102.115 126.795 98.3014 127.751 94.7397 129.631C91.2297 131.492 88.0551 134.219 85.2935 137.754C84.3644 138.128 83.7385 138.29 83.2739 138.29C82.9449 138.29 82.4609 138.212 81.4221 137.65C80.351 137.075 79.7316 136.358 79.4606 135.395C79.0218 133.838 79.5251 131.589 80.8027 129.334L80.9253 129.173C86.7453 121.354 95.4108 116.87 104.702 116.87H104.818C114.006 116.902 122.543 121.374 128.234 129.134L129.776 131.234L130.331 131.389C133.125 134.025 136.422 135.647 139.926 136.093C140.577 136.177 141.242 136.216 141.906 136.216C145.21 136.216 148.462 135.195 151.32 133.269C154.934 130.827 157.644 127.163 158.941 122.944C160.392 118.233 159.928 113.271 157.637 108.967C155.663 105.258 154.456 103.578 152.753 101.278L152.733 101.207L151.946 100.134C140.313 84.2972 122.73 75.18 103.702 75.1154H103.554C94.4042 75.1154 85.229 77.2735 77.0216 81.3637C68.3045 85.7058 60.8327 92.0058 54.8126 100.096L54.7868 100.134C53.6899 101.265 52.5608 101.937 51.509 102.086C51.3671 102.105 51.2251 102.118 51.0896 102.118C50.5347 102.118 50.025 101.95 49.612 101.634C48.0377 100.425 47.6828 97.091 50.6122 92.6003C54.09 87.9544 58.0582 83.7674 62.4071 80.1424C66.6721 76.5886 71.3306 73.5581 76.2602 71.1286C85.5194 66.5667 95.8044 64.1566 105.999 64.1566C106.38 64.1566 106.76 64.1566 107.148 64.1695C112.284 64.26 117.4 64.9578 122.349 66.2372C127.408 67.5424 132.318 69.468 136.951 71.9492C146.83 77.2477 155.321 84.9757 162.186 94.9071C163.599 96.9554 165.928 98.1766 168.413 98.1766C169.955 98.1766 171.445 97.7114 172.716 96.8261C174.381 95.676 175.491 93.9443 175.859 91.9477C176.22 89.9575 175.788 87.9415 174.633 86.2744C166.393 74.3464 156.121 65.0289 144.1 58.5738C138.403 55.5175 132.357 53.1526 126.13 51.5437C120.033 49.967 113.735 49.1141 107.412 48.9978C106.941 48.9914 106.47 48.9849 105.999 48.9849C93.5009 48.9849 80.9059 51.9314 69.5756 57.5141C63.5814 60.4671 57.9098 64.1566 52.7221 68.4729C47.3989 72.9055 42.5596 78.0231 38.3463 83.6898L38.114 84.0129C34.5265 89.4018 32.8811 95.1009 33.3521 100.496C33.8232 105.866 36.3331 110.544 40.4175 113.665C43.4952 116.017 47.1795 117.264 51.0638 117.264C51.9284 117.264 52.806 117.199 53.6641 117.077C58.5034 116.379 62.9878 113.794 66.6269 109.607L66.7043 109.51L69.9176 105.51C78.7766 95.676 90.7006 90.2547 103.496 90.2547H103.65C117.4 90.3 130.247 96.7938 138.99 108.089L139.003 108.134L140.319 109.911C141.984 112.153 142.739 113.18 144.287 116.088C145.262 117.917 144.016 119.907 142.874 120.682C142.629 120.85 142.274 121.044 141.977 121.044C141.532 121.044 140.868 120.572 140.216 119.784L139.977 119.5C131.421 108.231 118.633 101.743 104.883 101.692H104.728C97.9917 101.692 91.2297 103.288 85.1709 106.305C79.5251 109.116 74.5826 113.045 70.4596 118.001L70.1112 118.098L68.5561 120.391C64.9686 125.69 63.4201 131.55 64.0782 137.34C64.7041 142.8 67.356 147.788 71.3629 151.032C74.46 153.539 78.2927 154.922 82.1641 154.922C82.6545 154.922 83.1449 154.902 83.6353 154.857C88.1906 154.457 92.5266 152.221 96.1786 148.409L96.9077 147.646L97.1465 147.194C99.8565 143.659 102.786 141.941 106.077 141.941H106.147C107.373 141.947 108.999 142.374 110.393 143.046C112.239 143.937 113.568 146.263 113.613 146.968C113.613 148.137 113.613 148.266 110.877 150.761L110.754 150.877C110.425 151.174 110.09 151.471 109.735 151.782C107.528 153.707 104.786 156.111 101.908 161.293C100.586 163.677 98.8241 167.483 98.7466 173.04L98.7273 173.221V173.357C98.7273 173.357 98.5402 183.275 98.4305 190.331C98.4047 192.121 96.9335 193.581 95.1527 193.581L95.1398 193.601Z" fill="#D2F5F9"/>
<path d="M255.823 122.162C259.236 120.378 265.462 119.19 269.611 119.19H270.65C273.618 119.338 277.322 120.23 280.141 121.567C282.516 122.905 284.884 127.06 288 127.06C289.93 127.06 290.226 126.317 290.226 125.128V123.79C290.226 122.898 290.523 121.71 292.749 121.561C293.64 121.412 295.124 121.412 296.608 121.412C299.131 121.412 301.944 121.71 303.28 123.047C304.022 123.939 304.17 125.128 304.17 126.465C304.17 128.249 303.725 130.329 303.725 131.809C303.428 136.267 303.28 141.165 303.28 145.914C303.28 149.184 303.28 152.596 303.725 155.717C304.022 159.283 304.467 162.844 304.467 166.262V168.64C304.467 169.977 304.912 172.794 304.912 175.024C304.912 175.915 304.764 176.658 304.615 177.104C303.873 178.293 300.311 179.036 297.201 179.036C295.124 179.036 293.491 178.739 292.898 177.996C291.414 176.51 292.304 173.686 291.117 171.909C290.226 170.72 289.484 170.274 288.891 170.274C286.962 170.274 285.774 175.024 284.148 176.658C280.883 180.077 276.141 181.556 271.392 181.556C267.385 181.556 263.236 180.516 259.675 179.327C251.667 176.355 244.55 168.93 242.621 160.02C242.027 157.196 241.731 154.082 241.731 151.11C241.731 144.428 243.215 137.598 246.473 131.802C248.551 127.79 251.809 124.081 255.816 122.149L255.823 122.162ZM258.642 146.67C258.345 147.711 258.345 148.9 258.345 149.94C258.345 155.878 261.017 162.714 266.353 165.383C268.134 166.275 270.063 166.721 272.134 166.721C277.025 166.721 282.219 164.789 285.181 161.823C288.142 158.857 289.633 154.547 289.633 150.237C289.633 145.927 288.149 141.475 285.329 138.503C282.806 136.125 278.657 133.902 275.096 133.457C274.354 133.308 273.612 133.308 273.018 133.308C269.902 133.308 267.088 134.348 264.862 136.132C261.597 138.51 259.378 142.218 258.636 146.677L258.642 146.67Z" fill="#051D23"/>
<path d="M337.825 136.72C337.825 138.949 337.825 141.172 337.974 143.401C338.419 150.825 337.38 163.748 346.426 166.566C347.465 166.863 348.652 167.011 349.84 167.011C353.698 167.011 357.699 165.228 359.331 161.519C360.518 158.547 360.815 154.986 360.815 151.42C360.815 145.333 359.925 138.942 359.776 133.747C359.628 131.518 358.589 128.106 358.589 125.283C358.589 123.945 358.737 122.905 359.331 122.013C360.073 120.824 360.964 120.676 361.854 120.676C362.893 120.676 363.783 120.973 364.822 121.122C365.267 121.27 365.564 121.27 366.009 121.27C367.938 121.27 370.016 120.676 371.791 120.676C373.423 120.676 374.907 121.27 375.649 123.202C375.797 123.648 375.946 124.391 375.946 124.837C375.946 126.62 375.352 128.404 375.352 130.329C375.501 135.524 375.649 140.726 375.649 146.07C375.649 152.008 375.352 157.804 374.165 163.742C371.939 175.179 360.525 180.968 348.956 180.968C340.355 180.968 331.605 177.55 326.714 170.572C324.043 166.708 323.45 160.77 323.45 154.831C323.45 150.231 323.746 145.624 323.746 141.908V141.165C323.746 137.598 323.301 133.741 323.301 130.026C323.301 128.688 323.301 127.35 323.598 125.871C324.34 120.973 330.121 121.71 333.683 121.561H334.425C337.69 121.561 338.284 123.047 338.284 125.276C338.284 126.762 337.987 128.1 337.987 130.026C337.838 132.255 337.838 134.478 337.838 136.707L337.825 136.72Z" fill="#051D23"/>
<path d="M418.499 119.939C420.725 119.939 422.803 120.385 424.429 121.128C426.655 122.168 429.616 122.911 431.694 124.398C432.733 125.438 434.217 127.37 435.701 127.37C436.295 127.37 437.037 126.775 437.779 125.586C438.076 124.992 438.224 124.249 438.224 123.506C438.224 121.425 437.037 119.054 437.037 116.973V115.636C437.037 113.258 437.185 110.589 437.482 108.063V106.577C437.482 102.415 436.74 98.5578 436.295 94.3966C436.146 93.059 435.998 91.5729 435.998 90.0867C435.998 88.6006 436.146 87.263 436.443 85.7769C437.037 82.5074 438.224 82.2101 440.747 82.2101H442.676C444.605 82.2101 446.831 81.6157 448.903 81.6157C449.645 81.6157 450.387 81.7643 451.129 82.0615C453.058 82.8046 453.503 84.4394 453.503 86.3714C453.503 88.0061 453.206 89.4923 453.058 90.8298C452.613 94.6874 452.613 98.5514 452.613 102.564C452.613 108.205 452.761 114.001 452.761 119.642C452.761 127.958 452.019 135.977 452.019 143.847C452.019 145.63 452.019 147.414 452.167 149.19C452.464 154.088 452.316 158.844 452.761 163.742C453.058 165.822 453.651 169.383 453.651 172.504C453.651 174.584 453.355 176.368 452.613 177.55C451.722 178.888 448.161 179.482 445.051 179.482C442.973 179.482 441.192 179.334 440.308 178.739C438.379 177.847 438.082 173.247 435.417 173.247C433.043 173.247 428.894 177.557 426.668 178.59C423.7 179.631 420.738 180.225 417.77 180.225C414.505 180.225 411.098 179.482 408.13 178.442C398.194 174.726 393.154 167.451 391.967 157.061C391.819 155.277 391.819 153.345 391.819 151.42C391.819 144.441 393.154 137.017 396.561 131.221C399.232 127.06 402.936 123.648 408.13 121.716C410.653 120.824 414.802 119.933 418.512 119.933L418.499 119.939ZM404.704 148.447C404.704 150.082 405.001 151.866 405.298 153.494C406.188 157.804 408.117 162.85 412.118 164.782C414.937 166.268 419.68 167.457 423.835 167.457C426.358 167.457 428.578 167.16 430.359 165.971C434.365 163.296 437.327 155.872 437.624 151.122V150.082C437.624 145.333 435.546 140.726 432.436 137.159C429.023 133.592 425.319 132.558 420.719 132.558H419.828C415.97 132.707 413.008 133.896 410.782 135.531C406.478 139.098 404.704 143.55 404.704 148.454V148.447Z" fill="#051D23"/>
<path d="M468.614 98.5514C468.614 93.3563 472.176 88.0062 477.215 86.8173C477.809 86.6686 478.551 86.52 479.145 86.52C485.074 86.52 491.456 92.0123 491.456 97.957C491.456 98.4028 491.456 99.1459 491.307 99.5917C490.12 105.084 484.636 108.651 479.145 108.651C475.583 108.651 472.028 107.165 469.95 103.604C468.911 102.118 468.614 100.335 468.614 98.5579V98.5514ZM476.473 121.716C477.661 121.716 478.996 122.162 480.183 122.162H480.777C481.964 122.162 483.448 122.013 484.784 122.013C486.416 122.013 487.9 122.31 488.494 123.945C488.791 125.134 488.939 126.62 488.939 128.106C488.939 129.593 488.791 131.079 488.791 132.558V135.531C488.791 140.726 488.197 146.225 488.049 151.568C488.049 155.432 488.346 160.776 488.643 165.228C488.791 166.863 489.533 170.423 489.533 173.395C489.533 175.476 489.236 177.111 488.346 178.145C487.604 179.036 484.932 179.334 482.119 179.334C479.448 179.334 476.635 179.036 475.447 178.739C472.776 178.145 472.183 176.064 472.183 173.395C472.183 171.315 472.479 168.937 472.776 167.16C473.37 161.222 473.667 155.129 473.667 149.042C473.667 145.475 473.518 141.766 473.37 138.199C473.221 135.227 472.331 131.518 472.331 128.1C472.331 126.614 472.331 125.128 473.073 123.939C473.815 122.155 475.151 121.71 476.486 121.71L476.473 121.716Z" fill="#051D23"/>
<path d="M562.038 135.085C563.67 137.909 564.858 140.726 565.154 143.995C565.6 146.225 565.748 148.305 565.748 150.528C565.748 162.262 560.709 173.395 549.437 178.597C545.578 180.232 541.281 181.123 536.829 181.123C522.892 181.123 507.909 172.659 505.838 158.256C505.541 156.175 505.393 154.095 505.393 151.872C505.393 144.596 507.174 137.469 510.877 131.525C515.768 123.654 526.002 119.196 535.938 119.196C540.829 119.196 545.726 120.236 549.875 122.614C555.36 125.735 558.921 129.593 562.038 135.091V135.085ZM518.439 150.082C518.439 152.609 519.181 155.277 520.369 157.804C522.001 160.776 524.227 162.256 526.744 164.485C527.04 164.634 527.189 164.931 527.337 165.079C529.563 166.863 530.602 167.457 533.861 167.903C534.603 168.052 535.493 168.2 536.235 168.2C538.461 168.2 540.539 167.606 542.61 166.714C547.946 163.89 551.805 157.952 552.843 152.014C552.992 151.42 552.992 150.825 552.992 150.231C552.992 145.482 550.32 140.874 547.062 137.754C543.649 134.781 539.797 133.444 535.79 133.444C527.634 133.444 519.775 139.233 518.588 148.292C518.439 148.887 518.439 149.481 518.439 150.076V150.082Z" fill="#051D23"/>
<path d="M593.177 122.608C597.771 119.933 603.262 118.446 608.746 118.446C613.934 118.446 618.98 119.784 623.129 122.905C625.355 124.54 625.8 126.62 625.8 129.14V134.484C625.8 136.565 625.503 138.497 623.426 138.936C623.129 138.936 623.129 139.085 622.832 139.085C620.161 139.085 617.941 136.261 615.715 135.221C613.489 134.329 611.121 133.883 608.45 133.883C604.146 133.883 599.403 135.369 596.584 138.193C593.912 140.719 592.428 145.914 592.428 150.373C592.428 151.859 592.725 153.345 593.022 154.683C594.209 158.25 596.139 160.77 599.397 162.85C602.662 164.782 605.624 165.971 608.592 165.971C610.818 165.971 613.037 165.228 615.709 164.336C617.638 163.593 620.154 161.958 622.529 161.958H623.122C624.903 162.107 625.348 162.999 625.348 164.485C625.348 165.822 624.903 167.606 624.903 169.234V171.166C624.903 174.733 623.864 177.847 620.309 179.185C618.677 179.779 617.193 179.928 615.715 180.077C613.341 180.671 610.824 180.82 608.301 180.82C595.1 180.82 582.35 174.138 580.124 159.581C579.679 156.46 579.382 153.197 579.382 150.076V148.144C579.679 142.8 580.421 137.896 582.35 133.89C584.428 129.438 587.686 125.722 593.177 122.601V122.608Z" fill="#051D23"/>
<path d="M669.398 119.345C678.445 119.345 687.343 126.026 691.64 133.896C694.014 138.206 694.163 142.658 694.756 147.407C694.905 148.15 694.905 148.893 694.905 149.488C694.905 153.352 692.53 153.5 688.085 153.5H686.897C680.374 153.5 673.851 152.757 667.321 152.757C666.134 152.757 665.095 152.906 663.462 152.906C661.83 152.906 659.752 152.609 657.681 152.609C655.455 152.609 653.235 153.054 652.642 155.432C652.493 155.878 652.493 156.324 652.493 156.77C652.493 159.296 654.274 162.559 655.907 164.343C658.726 167.464 662.875 168.207 666.882 168.207H670.295C671.334 168.207 672.373 168.207 673.263 168.058C677.27 167.166 679.342 163.309 683.052 161.823C683.645 161.674 684.091 161.526 684.684 161.526C688.246 161.526 692.692 164.944 692.692 168.355C692.692 169.247 692.395 170.139 691.801 171.03C688.239 175.192 682.161 177.266 677.27 179.346C673.263 180.981 669.56 181.873 665.85 181.873C661.256 181.873 656.952 180.535 652.358 177.718C643.608 172.374 639.156 165.687 638.124 155.587C637.827 153.061 637.679 150.541 637.679 148.163C637.679 141.482 639.014 134.949 643.905 129.302C647.319 125.438 651.616 123.364 656.216 122.175C660.52 121.134 664.817 119.351 669.411 119.351L669.398 119.345ZM655.461 134.936C653.977 136.72 653.235 138.206 653.235 139.246C653.235 142.367 657.539 143.698 661.54 143.698C664.508 143.698 667.321 143.995 670.289 143.995H671.476C673.257 143.847 676.515 144.144 677.851 142.955C678.593 142.212 679.038 140.726 679.038 139.388C679.038 138.497 678.741 137.456 678.445 136.713C676.367 132.552 671.476 130.626 666.579 130.626C662.869 130.626 659.165 131.815 656.642 133.747C656.197 134.045 655.752 134.49 655.455 134.936H655.461Z" fill="#051D23"/>
<path d="M715.513 120.682C716.404 120.682 717.74 120.534 719.372 120.534C721.598 120.534 724.411 120.682 725.302 121.871C725.747 122.466 725.895 123.209 725.895 123.952C725.895 124.546 725.747 125.141 725.747 125.586C725.747 126.478 726.044 127.221 726.786 127.221C726.934 127.221 727.231 127.073 727.528 127.073C729.012 126.775 731.535 123.506 733.012 122.621C735.09 121.432 737.168 120.689 739.684 120.243C741.168 119.946 742.8 119.946 744.278 119.946C747.246 119.946 750.059 120.391 752.731 121.878C758.215 124.998 759.996 127.221 761.925 133.314C763.112 137.03 763.558 140.739 763.558 144.454C763.558 145.94 763.558 147.426 763.409 148.906C763.261 149.798 763.261 150.541 763.261 151.284C763.261 153.81 763.558 156.033 763.706 158.56C764.003 163.755 763.854 168.808 764.448 174.003C764.448 174.449 764.596 174.894 764.596 175.34C764.596 178.461 762.816 179.792 759.112 180.09C758.073 180.238 756.441 180.535 754.957 180.535C752.285 180.535 749.472 180.09 748.433 178.306C747.84 177.117 747.543 175.78 747.543 174.294C747.543 171.321 748.433 167.91 748.582 165.383C748.73 161.073 749.917 154.541 749.917 148.602C749.917 143.407 749.027 138.354 745.91 135.537C744.575 134.2 742.497 133.754 740.723 133.754C737.309 133.754 733.754 135.24 731.528 137.023C727.076 140.739 726.786 145.042 726.786 150.386V154.101C726.786 158.85 726.786 163.606 727.528 168.355C727.825 170.287 728.418 172.368 728.418 174.145C728.418 176.226 727.676 178.009 725.302 179.043C723.521 179.637 720.856 180.232 718.185 180.232C715.662 180.232 713.145 179.637 711.958 177.854C711.365 177.111 711.216 176.219 711.216 174.882C711.216 172.801 711.958 170.281 712.107 168.498C712.7 162.411 712.849 156.169 712.849 149.934C712.849 146.664 712.849 143.401 712.7 140.131C712.552 135.531 711.958 130.478 711.958 125.729C711.958 122.608 712.403 120.979 715.52 120.682H715.513Z" fill="#051D23"/>
<path d="M811.757 119.345C820.803 119.345 829.701 126.026 833.998 133.896C836.372 138.206 836.521 142.658 837.114 147.407C837.263 148.15 837.263 148.893 837.263 149.488C837.263 153.352 834.888 153.5 830.443 153.5H829.255C822.732 153.5 816.209 152.757 809.679 152.757C808.492 152.757 807.453 152.906 805.82 152.906C804.188 152.906 802.11 152.609 800.039 152.609C797.813 152.609 795.593 153.054 795 155.432C794.851 155.878 794.851 156.324 794.851 156.77C794.851 159.296 796.632 162.559 798.265 164.343C801.084 167.464 805.233 168.207 809.24 168.207H812.653C813.692 168.207 814.731 168.207 815.622 168.058C819.628 167.166 821.7 163.309 825.41 161.823C826.003 161.674 826.449 161.526 827.042 161.526C830.604 161.526 835.05 164.944 835.05 168.355C835.05 169.247 834.753 170.139 834.159 171.03C830.598 175.192 824.519 177.266 819.629 179.346C815.622 180.981 811.918 181.873 808.208 181.873C803.614 181.873 799.31 180.535 794.716 177.718C785.967 172.374 781.514 165.687 780.482 155.587C780.185 153.061 780.037 150.541 780.037 148.163C780.037 141.482 781.372 134.949 786.263 129.302C789.677 125.438 793.974 123.364 798.574 122.175C802.878 121.134 807.175 119.351 811.77 119.351L811.757 119.345ZM797.813 134.936C796.329 136.72 795.587 138.206 795.587 139.246C795.587 142.367 799.891 143.698 803.891 143.698C806.859 143.698 809.672 143.995 812.641 143.995H813.828C815.609 143.847 818.867 144.144 820.203 142.955C820.945 142.212 821.39 140.726 821.39 139.388C821.39 138.497 821.093 137.456 820.796 136.713C818.719 132.552 813.828 130.626 808.93 130.626C805.22 130.626 801.517 131.815 798.994 133.747C798.549 134.045 798.103 134.49 797.807 134.936H797.813Z" fill="#051D23"/>
</g>
<defs>
<clipPath id="clip0_159_19">
<rect width="853" height="210" fill="white"/>
</clipPath>
</defs>
</svg>
