<svg width="37" height="34" viewBox="0 0 37 34" fill="none" xmlns="http://www.w3.org/2000/svg">
<g filter="url(#filter0_d_1748_147)">
<path d="M18.7146 24.4896L28.8396 14.3646C31.3271 11.8646 31.6896 7.77713 29.3396 5.16463C28.7503 4.50626 28.0329 3.97498 27.2313 3.60323C26.4296 3.23148 25.5606 3.02708 24.6774 3.00251C23.7941 2.97795 22.9151 3.13373 22.094 3.46034C21.273 3.78695 20.5272 4.27754 19.9021 4.90213L18.0021 6.81463L16.3646 5.16463C13.8646 2.67713 9.77713 2.31463 7.16463 4.66463C6.50626 5.25398 5.97498 5.97139 5.60323 6.773C5.23148 7.57462 5.02708 8.44361 5.00251 9.32689C4.97795 10.2102 5.13373 11.0892 5.46034 11.9102C5.78695 12.7313 6.27754 13.4771 6.90213 14.1021L17.2896 24.4896C17.4792 24.6774 17.7353 24.7827 18.0021 24.7827C18.269 24.7827 18.525 24.6774 18.7146 24.4896Z" stroke="#6F788A" stroke-width="3" stroke-linecap="round" stroke-linejoin="round" shape-rendering="crispEdges"/>
</g>
<defs>
<filter id="filter0_d_1748_147" x="0" y="0.5" width="36.9192" height="32.7828" filterUnits="userSpaceOnUse" color-interpolation-filters="sRGB">
<feFlood flood-opacity="0" result="BackgroundImageFix"/>
<feColorMatrix in="SourceAlpha" type="matrix" values="0 0 0 0 0 0 0 0 0 0 0 0 0 0 0 0 0 0 127 0" result="hardAlpha"/>
<feOffset dx="0.5" dy="3"/>
<feGaussianBlur stdDeviation="2"/>
<feComposite in2="hardAlpha" operator="out"/>
<feColorMatrix type="matrix" values="0 0 0 0 0.245833 0 0 0 0 0.24437 0 0 0 0 0.23559 0 0 0 0.15 0"/>
<feBlend mode="normal" in2="BackgroundImageFix" result="effect1_dropShadow_1748_147"/>
<feBlend mode="normal" in="SourceGraphic" in2="effect1_dropShadow_1748_147" result="shape"/>
</filter>
</defs>
</svg>
