<?xml version="1.0" encoding="UTF-8"?><svg id="Layer_2" xmlns="http://www.w3.org/2000/svg" viewBox="0 0 1068 1068"><defs><style>.cls-1{fill:#abefed;}.cls-1,.cls-2{stroke-width:0px;}.cls-2{fill:#000;}</style></defs><g id="Text"><circle class="cls-1" cx="534" cy="534" r="534"/><path class="cls-2" d="M1008.24,535.41c0,243.85-184.06,444.73-420.83,471.26-13.57,1.52-25.39-9.23-25.17-22.88l1.5-94.61c.98-20.98,5.84-31.32,8.02-36.34,9.54-17.06,18.47-23.48,27.76-31.59,2.01-1.76,4.1-3.58,6.23-5.53l.65-.59c16.79-15.31,34.15-31.14,34.15-65.01,0-28.88-22.05-61.32-51.3-75.44-15.55-7.51-32.67-11.71-48.19-11.81h-.76c-17.68,0-34.72,4.27-50.66,12.68-17.1,9.04-32.54,22.73-45.91,40.7-16.62,7.34-24.6,7.98-38.39.55-26-14-23.12-42.83-9.24-66.61l1.22-1.63c33.21-44.55,82.73-70.05,135.95-70.05h.6c52.76.19,101.64,25.68,134.14,69.93l4.55,6.2,1.46.41c12.44,12.8,27.17,20.57,42.96,22.59,16.16,2.06,32.97-2.13,47.35-11.81,15.49-10.44,27.11-26.16,32.7-44.28,6.16-19.97,4.2-41.01-5.52-59.23-10.14-19.02-15.86-26.73-25.34-39.51-.1-.14-.21-.29-.31-.43l-.12-.4-2.32-3.15c-56.83-77.26-142.64-121.75-235.44-122.05-44.79-.12-89.8,10.38-130.12,30.44-42.59,21.19-79.12,51.97-108.59,91.49l-.76,1.02c-8.45,8.97-17.82,14.41-27.26,15.76-8.11,1.17-16.01-.81-22.26-5.58-14.63-11.17-19.75-36.89,1.63-69.28,18.76-25.09,40.23-47.76,63.81-67.37,23.01-19.14,48.15-35.47,74.72-48.54,52.01-25.57,109.73-38.56,166.91-37.55,27.77.49,55.44,4.24,82.25,11.16,27.36,7.06,53.93,17.44,78.99,30.87,53.3,28.56,99.03,70.09,135.94,123.42,7.04,10.18,20.99,12.72,31.16,5.68,10.18-7.04,12.72-20.99,5.68-31.16-40.99-59.24-92-105.48-151.62-137.43-28.2-15.12-58.14-26.81-88.96-34.76-30.2-7.8-61.37-12.03-92.65-12.58-64.28-1.14-129.09,13.44-187.46,42.14-29.73,14.62-57.86,32.89-83.6,54.29-26.44,21.99-50.48,47.4-71.44,75.52l-.68.97c-16.38,24.57-23.93,50.22-21.82,74.17,2.02,22.93,12.66,42.84,29.96,56.04,15.9,12.13,35.73,17.22,55.85,14.32,20.97-3.03,40.56-14.41,56.67-32.93l16.85-20.95c48.67-54.14,115.44-84.63,186.66-84.38,77.23.25,148.88,36.9,197.2,100.72l.12.38,2.34,3.17c.94,1.27,1.84,2.48,2.7,3.64,8.79,11.87,13.21,17.82,21.79,33.91,9.02,16.92.64,36.3-12.68,45.27-15.52,10.45-28.03,1.55-35.8-7.76l-1.48-1.77c-41-54.09-102.04-85.18-168.01-85.41h-.73c-32.17,0-64.47,7.6-93.43,22-28.54,14.19-53.31,34.33-73.72,59.92l-.99.28-4.58,6.76c-16.24,23.95-23.26,50.25-20.32,76.06,2.72,23.8,14.19,45.47,31.48,59.45,14.8,11.97,33.04,17.67,51.35,16.05,19.41-1.72,38.13-11.44,54.12-28.14l2.16-2.25.79-1.48c17.44-23.19,37.84-34.87,60.6-34.7,8.76.06,19.6,2.81,29.01,7.35,14.64,7.07,25.99,24.68,25.99,35.1,0,13.49-4.37,18.08-19.53,31.9l-.65.6c-1.79,1.63-3.6,3.21-5.52,4.89-10.94,9.55-23.33,20.37-36.76,44.53-5.47,9.85-14.02,27.2-14.21,53.34l-.1.99s-.94,51.04-1.51,87.35c-.32,19.83-17.64,35.11-37.35,32.89-237.08-26.81-421.18-228.42-420.35-472.86.89-262.08,215.46-474.36,477.54-472.58,260.4,1.77,470.94,213.42,470.94,474.23Z"/></g></svg>