<svg width="51" height="65" viewBox="0 0 51 65" fill="none" xmlns="http://www.w3.org/2000/svg">
<g clip-path="url(#clip0_770_18)">
<path d="M25.3799 0.379883C11.5699 0.389883 0.389883 11.5699 0.379883 25.3799C0.379883 34.2999 4.49988 43.7499 12.3099 52.7199C15.8199 56.7699 19.7699 60.4199 24.0899 63.5999C24.8699 64.1499 25.9199 64.1499 26.6999 63.5999C31.0099 60.4199 34.9499 56.7699 38.4499 52.7199C46.2499 43.7499 50.3799 34.2999 50.3799 25.3799C50.3599 11.5799 39.1799 0.399883 25.3799 0.379883Z" fill="#386481" stroke="#18252A" stroke-width="0.75" stroke-linejoin="round"/>
<circle cx="25" cy="25" r="18.625" fill="#DBF4F8" stroke="#18252A" stroke-width="0.75"/>
<path d="M35 25C35 25.442 34.8244 25.866 34.5118 26.1785C34.1993 26.4911 33.7754 26.6667 33.3333 26.6667H26.6667V33.3333C26.6667 33.7754 26.4911 34.1993 26.1785 34.5118C25.866 34.8244 25.442 35 25 35C24.558 35 24.1341 34.8244 23.8215 34.5118C23.5089 34.1993 23.3333 33.7754 23.3333 33.3333V26.6667H16.6667C16.2246 26.6667 15.8007 26.4911 15.4882 26.1785C15.1756 25.866 15 25.442 15 25C15 24.558 15.1756 24.134 15.4882 23.8215C15.8007 23.5089 16.2246 23.3333 16.6667 23.3333H23.3333V16.6667C23.3333 16.2246 23.5089 15.8007 23.8215 15.4882C24.1341 15.1756 24.558 15 25 15C25.442 15 25.866 15.1756 26.1785 15.4882C26.4911 15.8007 26.6667 16.2246 26.6667 16.6667V23.3333H33.3333C33.7754 23.3333 34.1993 23.5089 34.5118 23.8215C34.8244 24.134 35 24.558 35 25Z" fill="#003242"/>
</g>
<defs>
<clipPath id="clip0_770_18">
<rect width="50.75" height="64.39" fill="white"/>
</clipPath>
</defs>
</svg>
