<?xml version="1.0" encoding="UTF-8"?><svg id="Layer_2" xmlns="http://www.w3.org/2000/svg" viewBox="0 0 50.75 64.39"><defs><style>.cls-1{fill:#386481;stroke:#18252a;stroke-linejoin:round;stroke-width:.75px;}.cls-2{fill:#dbf4f8;}.cls-2,.cls-3{stroke-width:0px;}.cls-3{fill:#18252a;}</style></defs><g id="Layer_1-2"><path class="cls-1" d="M25.38.38C11.57.39.39,11.57.38,25.38c0,8.92,4.12,18.37,11.93,27.34,3.51,4.05,7.46,7.7,11.78,10.88.78.55,1.83.55,2.61,0,4.31-3.18,8.25-6.83,11.75-10.88,7.8-8.97,11.93-18.42,11.93-27.34-.02-13.8-11.2-24.98-25-25Z"/><path class="cls-3" d="M45.38,25.25c0,10.28-7.76,18.76-17.75,19.87-.57.06-1.07-.39-1.06-.96l.06-3.99c.04-.88.25-1.32.34-1.53.4-.72.78-.99,1.17-1.33.08-.07.17-.15.26-.23l.03-.02c.71-.65,1.44-1.31,1.44-2.74,0-1.22-.93-2.59-2.16-3.18-.66-.32-1.38-.49-2.03-.5h-.03c-.75,0-1.46.18-2.14.53-.72.38-1.37.96-1.94,1.72-.7.31-1.04.34-1.62.02-1.1-.59-.98-1.81-.39-2.81l.05-.07c1.4-1.88,3.49-2.95,5.73-2.95h.03c2.22,0,4.29,1.08,5.66,2.95l.19.26.06.02c.52.54,1.15.87,1.81.95.68.09,1.39-.09,2-.5.65-.44,1.14-1.1,1.38-1.87.26-.84.18-1.73-.23-2.5-.43-.8-.67-1.13-1.07-1.67,0,0,0-.01-.01-.02v-.02s-.1-.13-.1-.13c-2.4-3.26-6.02-5.13-9.93-5.15-1.89,0-3.79.44-5.49,1.28-1.8.89-3.34,2.19-4.58,3.86l-.03.04c-.36.38-.75.61-1.15.66-.34.05-.68-.03-.94-.24-.62-.47-.83-1.56.07-2.92.79-1.06,1.7-2.01,2.69-2.84.97-.81,2.03-1.5,3.15-2.05,2.19-1.08,4.63-1.63,7.04-1.58,1.17.02,2.34.18,3.47.47,1.15.3,2.27.74,3.33,1.3,2.25,1.2,4.18,2.96,5.73,5.21.3.43.89.54,1.31.24.43-.3.54-.89.24-1.31-1.73-2.5-3.88-4.45-6.39-5.8-1.19-.64-2.45-1.13-3.75-1.47-1.27-.33-2.59-.51-3.91-.53-2.71-.05-5.44.57-7.91,1.78-1.25.62-2.44,1.39-3.53,2.29-1.12.93-2.13,2-3.01,3.18l-.03.04c-.69,1.04-1.01,2.12-.92,3.13.09.97.53,1.81,1.26,2.36.67.51,1.51.73,2.36.6.88-.13,1.71-.61,2.39-1.39l.71-.88c2.05-2.28,4.87-3.57,7.87-3.56,3.26.01,6.28,1.56,8.32,4.25v.02s.1.13.1.13c.04.05.08.1.11.15.37.5.56.75.92,1.43.38.71.03,1.53-.53,1.91-.65.44-1.18.07-1.51-.33l-.06-.07c-1.73-2.28-4.3-3.59-7.09-3.6h-.03c-1.36,0-2.72.32-3.94.93-1.2.6-2.25,1.45-3.11,2.53h-.04s-.19.3-.19.3c-.68,1.01-.98,2.12-.86,3.21.11,1,.6,1.92,1.33,2.51.62.5,1.39.75,2.17.68.82-.07,1.61-.48,2.28-1.19l.09-.09.03-.06c.74-.98,1.6-1.47,2.56-1.46.37,0,.83.12,1.22.31.62.3,1.1,1.04,1.1,1.48,0,.57-.18.76-.82,1.35l-.03.03c-.08.07-.15.14-.23.21-.46.4-.98.86-1.55,1.88-.23.42-.59,1.15-.6,2.25v.04s-.04,2.15-.07,3.68c-.01.84-.74,1.48-1.58,1.39-10-1.13-17.76-9.63-17.73-19.94.04-11.05,9.09-20.01,20.14-19.93s19.86,9,19.86,20Z"/><path class="cls-2" d="M23.26,44.43s-.05,0-.08,0c-9.78-1.11-17.14-9.38-17.1-19.24.04-10.6,8.69-19.23,19.3-19.23h.13c5.13.04,9.94,2.06,13.56,5.7,3.62,3.64,5.61,8.47,5.61,13.6,0,9.84-7.36,18.08-17.12,19.18-.01,0-.02,0-.03,0-.09,0-.15-.05-.18-.08-.03-.03-.07-.09-.07-.18l.06-3.98c.03-.71.18-1.05.27-1.24.29-.5.54-.72.86-.99.05-.04.1-.08.15-.13l.03-.03c.08-.07.16-.14.24-.22l.02-.02c.75-.68,1.67-1.53,1.67-3.26,0-1.49-1.08-3.1-2.56-3.81-.75-.36-1.58-.56-2.33-.57h-.04c-.86,0-1.69.21-2.46.62-.76.4-1.45,1-2.05,1.76-.2.08-.34.12-.44.12-.07,0-.18-.02-.4-.14-.23-.13-.37-.28-.43-.49-.09-.34.01-.83.29-1.32l.03-.04c1.27-1.7,3.15-2.67,5.17-2.67h.03c2,0,3.85.98,5.09,2.66l.34.46.12.03c.61.57,1.32.92,2.09,1.02.14.02.29.03.43.03.72,0,1.43-.22,2.05-.64.79-.53,1.37-1.33,1.66-2.24.32-1.02.21-2.1-.28-3.03-.43-.81-.69-1.17-1.06-1.67v-.02s-.18-.23-.18-.23c-2.53-3.44-6.35-5.42-10.49-5.43h-.03c-1.99,0-3.98.47-5.77,1.36-1.9.94-3.52,2.31-4.83,4.07h0c-.24.25-.48.4-.71.43-.03,0-.06,0-.09,0-.12,0-.23-.04-.32-.11-.34-.26-.42-.99.22-1.96.76-1.01,1.62-1.92,2.56-2.7.93-.77,1.94-1.43,3.01-1.96,2.01-.99,4.25-1.51,6.47-1.51.08,0,.17,0,.25,0,1.12.02,2.23.17,3.31.45,1.1.28,2.17.7,3.17,1.24,2.15,1.15,3.99,2.83,5.49,4.99.31.44.81.71,1.35.71.34,0,.66-.1.94-.29.36-.25.6-.63.68-1.06.08-.43-.02-.87-.27-1.23-1.79-2.59-4.03-4.61-6.64-6.01-1.24-.66-2.55-1.18-3.91-1.53-1.33-.34-2.7-.53-4.07-.55-.1,0-.21,0-.31,0-2.72,0-5.46.64-7.92,1.85-1.3.64-2.54,1.44-3.66,2.38-1.16.96-2.21,2.07-3.13,3.31l-.05.07c-.78,1.17-1.14,2.41-1.04,3.58.1,1.17.65,2.18,1.54,2.86.67.51,1.47.78,2.32.78.19,0,.38-.01.57-.04,1.05-.15,2.03-.71,2.82-1.62l.02-.02.7-.87c1.93-2.14,4.52-3.31,7.3-3.31h.03c2.99,0,5.78,1.42,7.68,3.87h0s.29.4.29.4c.36.49.53.71.86,1.34.21.4-.06.83-.31,1-.05.04-.13.08-.2.08-.1,0-.24-.1-.38-.27l-.05-.06c-1.86-2.45-4.64-3.86-7.63-3.87h-.03c-1.46,0-2.93.35-4.25,1-1.23.61-2.3,1.46-3.2,2.54l-.08.02-.34.5c-.78,1.15-1.12,2.42-.97,3.68.14,1.19.71,2.27,1.58,2.97.67.54,1.51.84,2.35.84.11,0,.21,0,.32-.01.99-.09,1.93-.57,2.73-1.4l.16-.17.05-.1c.59-.77,1.23-1.14,1.94-1.14h.02c.27,0,.62.09.92.24.4.19.69.7.7.85,0,.25,0,.28-.59.82l-.03.02c-.07.06-.14.13-.22.2-.48.42-1.08.94-1.7,2.07-.29.52-.67,1.34-.69,2.55v.04s0,.03,0,.03c0,0-.04,2.15-.06,3.69,0,.39-.33.71-.71.71Z"/></g></svg>