<?xml version="1.0" encoding="UTF-8"?>
<svg id="Layer_1__x28_1:1_x29_" xmlns="http://www.w3.org/2000/svg" width="700" height="500" viewBox="0 0 700 500">
  <defs>
    <style>
      .cls-1, .cls-2 {
        fill: #6f8890;
      }

      .cls-3 {
        letter-spacing: .00001em;
      }

      .cls-2 {
        font-family: Seravek-Medium, Seravek;
        font-size: 38.64902px;
        font-weight: 500;
      }

      .cls-4 {
        letter-spacing: -.00298em;
      }

      .cls-5 {
        letter-spacing: -.002em;
      }
    </style>
  </defs>
  <path class="cls-1" d="M453.53922,96.46078h-207.07843c-10.39693,0-18.82531,8.42838-18.82531,18.82531v169.42781c0,10.39694,8.42838,18.82531,18.82531,18.82531h207.07843c10.39694,0,18.82531-8.42837,18.82531-18.82531V115.2861c0-10.39693-8.42837-18.82531-18.82531-18.82531ZM453.53922,115.2861v120.8938l-30.6735-30.66172c-7.35091-7.35258-19.27043-7.35394-26.623-.00305l-.00305.00305-23.53164,23.53164-51.76961-51.76961c-7.35075-7.34593-19.26354-7.34593-26.61429,0l-47.86334,47.86335v-109.85746h207.07843ZM246.46078,251.76961l61.18226-61.18226,94.12656,94.12656h-155.30882v-32.9443ZM453.53922,284.7139h-25.14355l-42.35695-42.35695,23.53164-23.53164,43.96886,43.98064v21.90795ZM368.82531,167.0557c0-7.7977,6.32129-14.11898,14.11898-14.11898s14.11898,6.32128,14.11898,14.11898-6.32129,14.11898-14.11898,14.11898-14.11898-6.32128-14.11898-14.11898Z"/>
  <text class="cls-2" transform="translate(184.31348 401.45312)"><tspan x="0" y="0">No ph</tspan><tspan class="cls-4" x="102.3418" y="0">o</tspan><tspan x="124.17871" y="0">to up</tspan><tspan class="cls-5" x="213.91992" y="0">l</tspan><tspan class="cls-3" x="225.32129" y="0">oaded</tspan></text>
  <path class="cls-1" d="M649.85816,500H50.14184c-27.64822,0-50.14184-22.43-50.14184-50V50C0,22.43,22.49363,0,50.14184,0h599.71631c27.64822,0,50.14184,22.43,50.14184,50v400c0,27.57-22.49363,50-50.14184,50ZM50.14184,4.9505C25.23091,4.9505,4.96454,25.15954,4.96454,50v400c0,24.84046,20.26637,45.0495,45.1773,45.0495h599.71631c24.91093,0,45.1773-20.20904,45.1773-45.0495V50c0-24.84046-20.26637-45.0495-45.1773-45.0495H50.14184Z"/>
</svg>