<?xml version="1.0" encoding="UTF-8"?><svg id="Layer_2" xmlns="http://www.w3.org/2000/svg" viewBox="0 0 968.39 149"><defs><style>.cls-1{fill:#000;stroke-width:0px;}</style></defs><g id="Text"><path class="cls-1" d="M37,83.4c13.2,0,22.4,5,29.6,10.2v-8c0-17-10-25.2-26.2-25.2-14.4,0-25.8,4.6-34,7.4l2.6-18c11.8-3.4,22.4-5,34.8-5,27.4,0,43,13.8,43,40.8v60.2h-19.6v-11.2c-5.2,8-16.6,14.2-31.4,14.2-22,0-35.8-14.2-35.8-33.2s14.6-32.2,37-32.2ZM41.4,134c13.8,0,25.4-10,25.4-25.2v-1.2c-8.2-6.4-16.6-9.2-25.6-9.2-13,0-21,6.8-21,17.2s8,18.4,21.2,18.4Z"/><path class="cls-1" d="M205.2,46.2v99.6h-19v-15c-6.6,10-18.2,18-35.4,18-21.8,0-35.2-14.6-35.2-36v-64l20-2.6v62.4c0,15,8,24,22.8,24s26.8-14.4,26.8-31.4v-52.4l20-2.6Z"/><path class="cls-1" d="M307.8,145.8v-15.4c-7,10.6-17.8,18.4-35.8,18.4-20.8,0-40.4-17.2-40.4-51.8s21.8-52,44.8-52c15.8,0,25,7,30.6,11.6V9.6l20.2-3.2v139.4h-19.4ZM280.2,61.2c-14.4,0-27.8,12.6-27.8,35.2s10.6,36.2,27,36.2,27.6-13.6,27.6-30.6v-28.8c-6-5.2-14.4-12-26.8-12Z"/><path class="cls-1" d="M369,0l15.6,15-15.6,14.6-15.8-14.6,15.8-15ZM359,48.8l20-2.6v99.6h-20V48.8Z"/><path class="cls-1" d="M405.39,96.8c0-31.8,22.4-52,51.6-52s51.4,20.2,51.4,52-22.2,52.2-51.4,52.2-51.6-20.4-51.6-52.2ZM487.39,96.8c0-23-12.6-36.2-30.4-36.2s-30.6,13.2-30.6,36.2,12.6,36.2,30.4,36.2,30.6-13.4,30.6-36.2Z"/><path class="cls-1" d="M615.99,123.2l-2.8,16.8c-9,5.2-20,9-33.8,9-31.2,0-50.2-20.4-50.2-52.2s21-52,51.4-52c12,0,22.8,3.4,31,7.4l3.2,19.2c-11.8-6.4-21.8-10.8-32.6-10.8-18.4,0-32.4,13.8-32.2,36.2.2,24,12.6,36.4,32.2,36.4,11.8,0,22.8-3.6,33.8-10Z"/><path class="cls-1" d="M727.99,102.4h-76.8c2,20,14.8,30.8,36.8,30.8,14.8,0,23.2-3.2,36.2-9.2l-2.8,16.8c-7.2,3.2-17.8,8.2-37,8.2-30.4,0-53.8-19-53.8-52s22.4-52.2,50.2-52.2,47.8,19,47.8,47.8c0,3.4-.2,6.8-.6,9.8ZM651.59,88.6h57.6c-1.4-18.6-12.4-28.4-28.4-28.4s-26.6,9.6-29.2,28.4Z"/><path class="cls-1" d="M846.19,81.6v64.2h-20.2v-61c0-14.8-8.4-23.6-23.8-23.6s-27.2,13.4-27.2,30.4v54.2h-20V48.8l19.2-2.6v17c6.6-10.2,18-18.2,35.8-18.2,22.6,0,36.2,14.4,36.2,36.6Z"/><path class="cls-1" d="M967.79,102.4h-76.8c2,20,14.8,30.8,36.8,30.8,14.8,0,23.2-3.2,36.2-9.2l-2.8,16.8c-7.2,3.2-17.8,8.2-37,8.2-30.4,0-53.8-19-53.8-52s22.4-52.2,50.2-52.2,47.8,19,47.8,47.8c0,3.4-.2,6.8-.6,9.8ZM891.39,88.6h57.6c-1.4-18.6-12.4-28.4-28.4-28.4s-26.6,9.6-29.2,28.4Z"/></g></svg>